HIERARCHY
ROOT Hips
{
	OFFSET 0.000000 0.794594 0.001814
	CHANNELS 6 Xposition Yposition Zposition Zrotation Xrotation Yrotation
	JOINT Spine
	{
		OFFSET -0.000000 0.051920 0.010783
		CHANNELS 3 Zrotation Xrotation Yrotation
		JOINT Chest
		{
			OFFSET 0.000000 0.111800 0.002643
			CHANNELS 3 Zrotation Xrotation Yrotation
			JOINT UpperChest
			{
				OFFSET 0.000011 0.124994 0.000757
				CHANNELS 3 Zrotation Xrotation Yrotation
				JOINT Neck
				{
					OFFSET 0.000112 0.117645 -0.020286
					CHANNELS 3 Zrotation Xrotation Yrotation
					JOINT Head
					{
						OFFSET 0.000009 0.074358 -0.000161
						CHANNELS 3 Zrotation Xrotation Yrotation
						JOINT LeftEye
						{
							OFFSET 0.019846 0.051735 0.040589
							CHANNELS 3 Zrotation Xrotation Yrotation
							End Site
							{
								OFFSET -0.000199 0.054090 0.042333
							}
						}
						JOINT RightEye
						{
							OFFSET -0.020226 0.051740 0.040395
							CHANNELS 3 Zrotation Xrotation Yrotation
							End Site
							{
								OFFSET -0.000199 0.054090 0.042333
							}
						}
					}
				}
				JOINT LeftShoulder
				{
					OFFSET 0.022481 0.089795 -0.017340
					CHANNELS 3 Zrotation Xrotation Yrotation
					JOINT LeftUpperArm
					{
						OFFSET 0.087730 -0.000010 0.000425
						CHANNELS 3 Zrotation Xrotation Yrotation
						JOINT LeftLowerArm
						{
							OFFSET 0.210368 -0.000024 0.001018
							CHANNELS 3 Zrotation Xrotation Yrotation
							JOINT LeftHand
							{
								OFFSET 0.205447 -0.000023 0.000995
								CHANNELS 3 Zrotation Xrotation Yrotation
								JOINT LeftIndexProximal
								{
									OFFSET 0.064530 0.001495 0.020207
									CHANNELS 3 Zrotation Xrotation Yrotation
									JOINT LeftIndexIntermediate
									{
										OFFSET 0.033222 -0.000004 0.000161
										CHANNELS 3 Zrotation Xrotation Yrotation
										JOINT LeftIndexDistal
										{
											OFFSET 0.020455 -0.000002 0.000099
											CHANNELS 3 Zrotation Xrotation Yrotation
											End Site
											{
												OFFSET 0.020455 -0.000002 0.000099
											}
										}
									}
								}
								JOINT LeftLittleProximal
								{
									OFFSET 0.062810 -0.001965 -0.027941
									CHANNELS 3 Zrotation Xrotation Yrotation
									JOINT LeftLittleIntermediate
									{
										OFFSET 0.031399 -0.000004 0.000152
										CHANNELS 3 Zrotation Xrotation Yrotation
										JOINT LeftLittleDistal
										{
											OFFSET 0.018096 -0.000002 0.000088
											CHANNELS 3 Zrotation Xrotation Yrotation
											End Site
											{
												OFFSET 0.018096 -0.000002 0.000088
											}
										}
									}
								}
								JOINT LeftMiddleProximal
								{
									OFFSET 0.066616 0.003770 0.003447
									CHANNELS 3 Zrotation Xrotation Yrotation
									JOINT LeftMiddleIntermediate
									{
										OFFSET 0.037006 -0.000004 0.000179
										CHANNELS 3 Zrotation Xrotation Yrotation
										JOINT LeftMiddleDistal
										{
											OFFSET 0.022829 -0.000003 0.000111
											CHANNELS 3 Zrotation Xrotation Yrotation
											End Site
											{
												OFFSET 0.022829 -0.000003 0.000111
											}
										}
									}
								}
								JOINT LeftRingProximal
								{
									OFFSET 0.066883 0.003312 -0.012295
									CHANNELS 3 Zrotation Xrotation Yrotation
									JOINT LeftRingIntermediate
									{
										OFFSET 0.034327 -0.000004 0.000166
										CHANNELS 3 Zrotation Xrotation Yrotation
										JOINT LeftRingDistal
										{
											OFFSET 0.019811 -0.000002 0.000096
											CHANNELS 3 Zrotation Xrotation Yrotation
											End Site
											{
												OFFSET 0.019811 -0.000002 0.000096
											}
										}
									}
								}
								JOINT LeftThumbProximal
								{
									OFFSET 0.001872 -0.006642 0.017855
									CHANNELS 3 Zrotation Xrotation Yrotation
									JOINT LeftThumbIntermediate
									{
										OFFSET 0.032244 -0.005707 0.033063
										CHANNELS 3 Zrotation Xrotation Yrotation
										JOINT LeftThumbDistal
										{
											OFFSET 0.020631 -0.005083 0.019180
											CHANNELS 3 Zrotation Xrotation Yrotation
											End Site
											{
												OFFSET 0.020631 -0.005083 0.019180
											}
										}
									}
								}
							}
						}
					}
				}
				JOINT RightShoulder
				{
					OFFSET -0.022291 0.089803 -0.017557
					CHANNELS 3 Zrotation Xrotation Yrotation
					JOINT RightUpperArm
					{
						OFFSET -0.087729 0.000010 -0.000425
						CHANNELS 3 Zrotation Xrotation Yrotation
						JOINT RightLowerArm
						{
							OFFSET -0.210400 0.000024 -0.001019
							CHANNELS 3 Zrotation Xrotation Yrotation
							JOINT RightHand
							{
								OFFSET -0.205447 0.000024 -0.000995
								CHANNELS 3 Zrotation Xrotation Yrotation
								JOINT RightIndexProximal
								{
									OFFSET -0.064723 0.001510 0.019581
									CHANNELS 3 Zrotation Xrotation Yrotation
									JOINT RightIndexIntermediate
									{
										OFFSET -0.033222 0.000004 -0.000161
										CHANNELS 3 Zrotation Xrotation Yrotation
										JOINT RightIndexDistal
										{
											OFFSET -0.020455 0.000002 -0.000099
											CHANNELS 3 Zrotation Xrotation Yrotation
											End Site
											{
												OFFSET -0.020455 0.000002 -0.000099
											}
										}
									}
								}
								JOINT RightLittleProximal
								{
									OFFSET -0.062537 -0.001951 -0.028548
									CHANNELS 3 Zrotation Xrotation Yrotation
									JOINT RightLittleIntermediate
									{
										OFFSET -0.031399 0.000004 -0.000152
										CHANNELS 3 Zrotation Xrotation Yrotation
										JOINT RightLittleDistal
										{
											OFFSET -0.018096 0.000002 -0.000088
											CHANNELS 3 Zrotation Xrotation Yrotation
											End Site
											{
												OFFSET -0.018096 0.000002 -0.000088
											}
										}
									}
								}
								JOINT RightMiddleProximal
								{
									OFFSET -0.066645 0.003785 0.002802
									CHANNELS 3 Zrotation Xrotation Yrotation
									JOINT RightMiddleIntermediate
									{
										OFFSET -0.037006 0.000004 -0.000179
										CHANNELS 3 Zrotation Xrotation Yrotation
										JOINT RightMiddleDistal
										{
											OFFSET -0.022829 0.000003 -0.000110
											CHANNELS 3 Zrotation Xrotation Yrotation
											End Site
											{
												OFFSET -0.022829 0.000003 -0.000111
											}
										}
									}
								}
								JOINT RightRingProximal
								{
									OFFSET -0.066760 0.003327 -0.012943
									CHANNELS 3 Zrotation Xrotation Yrotation
									JOINT RightRingIntermediate
									{
										OFFSET -0.034327 0.000004 -0.000166
										CHANNELS 3 Zrotation Xrotation Yrotation
										JOINT RightRingDistal
										{
											OFFSET -0.019810 0.000002 -0.000096
											CHANNELS 3 Zrotation Xrotation Yrotation
											End Site
											{
												OFFSET -0.019810 0.000002 -0.000096
											}
										}
									}
								}
								JOINT RightThumbProximal
								{
									OFFSET -0.002047 -0.006641 0.017836
									CHANNELS 3 Zrotation Xrotation Yrotation
									JOINT RightThumbIntermediate
									{
										OFFSET -0.032565 -0.005700 0.032749
										CHANNELS 3 Zrotation Xrotation Yrotation
										JOINT RightThumbDistal
										{
											OFFSET -0.020816 -0.005081 0.018978
											CHANNELS 3 Zrotation Xrotation Yrotation
											End Site
											{
												OFFSET -0.020815 -0.005081 0.018979
											}
										}
									}
								}
							}
						}
					}
				}
			}
		}
	}
	JOINT LeftUpperLeg
	{
		OFFSET 0.077122 -0.039594 -0.005714
		CHANNELS 3 Zrotation Xrotation Yrotation
		JOINT LeftLowerLeg
		{
			OFFSET 0.000000 -0.343087 0.003688
			CHANNELS 3 Zrotation Xrotation Yrotation
			JOINT LeftFoot
			{
				OFFSET 0.000000 -0.401029 -0.031321
				CHANNELS 3 Zrotation Xrotation Yrotation
				JOINT LeftToes
				{
					OFFSET 0.000000 -0.001591 0.127952
					CHANNELS 3 Zrotation Xrotation Yrotation
					End Site
					{
						OFFSET -0.000000 -0.001591 0.127952
					}
				}
			}
		}
	}
	JOINT RightUpperLeg
	{
		OFFSET -0.077122 -0.039594 -0.005714
		CHANNELS 3 Zrotation Xrotation Yrotation
		JOINT RightLowerLeg
		{
			OFFSET -0.000000 -0.343087 0.003689
			CHANNELS 3 Zrotation Xrotation Yrotation
			JOINT RightFoot
			{
				OFFSET 0.000000 -0.401030 -0.031318
				CHANNELS 3 Zrotation Xrotation Yrotation
				JOINT RightToes
				{
					OFFSET -0.000000 -0.001590 0.127952
					CHANNELS 3 Zrotation Xrotation Yrotation
					End Site
					{
						OFFSET 0.000000 -0.001590 0.127952
					}
				}
			}
		}
	}
}
MOTION
Frames: 4
Frame Time: 0.016667
0.000000 0.794594 0.001814 -0.000000 0.000000 -0.000000 0.000000 -0.000000 0.000000 0.000000 0.000000 0.000000 -0.000000 -0.000000 -0.000000 -0.000000 -0.000000 -0.000000 0.000000 0.000001 -0.000000 -0.000000 -0.000004 -0.000000 -0.000000 -0.000004 -0.000000 -0.000000 -0.000000 -0.000000 -0.000000 -0.000000 0.000000 -0.000000 0.000000 0.000000 -0.000000 -0.000000 0.000000 -0.000000 -0.000000 0.000000 -0.000000 -0.000000 -0.000000 -0.000000 -0.000000 -0.000000 -0.000000 -0.000000 -0.000000 0.000000 -0.000000 -0.000000 0.000000 -0.000000 -0.000000 -0.000000 0.000000 0.000000 -0.000000 -0.000000 0.000000 -0.000000 0.000000 0.000000 -0.000000 0.000000 0.000000 -0.000000 0.000000 0.000000 -0.000000 0.000000 0.000000 -0.000000 0.000000 0.000002 -0.000001 0.000001 0.000002 0.000001 0.000000 -0.000001 -0.000000 -0.000001 -0.000000 -0.000000 -0.000000 0.000000 -0.000000 0.000000 -0.000000 0.000000 -0.000000 0.000000 -0.000000 -0.000000 0.000000 0.000000 -0.000000 -0.000000 0.000000 -0.000000 -0.000000 -0.000000 0.000000 -0.000000 0.000000 -0.000000 0.000000 0.000000 -0.000000 0.000000 0.000000 0.000000 0.000000 0.000000 0.000000 0.000000 0.000000 0.000000 0.000000 0.000000 -0.000000 0.000000 0.000000 -0.000000 0.000000 0.000000 -0.000000 0.000000 -0.000001 -0.000000 0.000002 0.000001 0.000001 -0.000003 0.000001 0.000001 0.000001 -0.000000 0.000000 -0.000000 -0.000000 0.000000 0.000000 0.000000 0.000007 0.000000 0.000000 -0.000000 0.000000 -0.000000 0.000000 0.000000 -0.000000 -0.000000 0.000000 0.000000 0.000000 0.000000 0.000000 -0.000000 0.000000 
-0.001300 0.791737 0.015356 -1.451016 -0.037384 -15.646270 -2.413630 0.908513 -3.906380 3.603320 -3.844945 0.089237 -0.103851 -3.584390 0.067452 -6.388853 -2.655987 4.283872 -10.552258 9.768889 11.591196 -0.000000 -0.000008 -0.000002 -0.000000 -0.000008 -0.000002 -3.896974 -0.051397 -0.542818 -73.494960 -22.135023 2.417744 9.472770 24.506978 -124.747135 -54.799905 -24.199014 -27.537101 0.709435 3.569232 10.333018 -10.565893 1.389001 -1.161635 -12.182283 -0.440706 -0.387407 -5.455183 4.331477 -0.044793 -14.594984 -0.000369 0.000015 -12.186540 -0.000004 0.000068 -1.246686 3.572408 7.449322 -15.833277 0.000015 -0.000020 -12.194864 -0.000001 -0.000006 -1.550114 3.802247 4.806643 -19.683815 -0.000019 0.000049 -12.194863 0.000013 0.000001 9.025064 -18.294506 16.602826 -4.736440 1.412028 27.168327 -3.522018 0.819309 23.208030 4.932313 -0.076657 0.713758 63.608145 23.603558 2.290561 1.097825 -1.835027 121.233003 32.714769 -19.065490 14.372794 13.631494 2.348362 -5.499014 16.253834 1.281392 1.187350 17.867155 -0.616003 0.598195 21.324513 8.713531 8.330917 17.631969 -0.000356 -0.000022 17.883305 0.000010 -0.000098 17.395928 3.555444 -2.603985 17.927056 0.000003 0.000020 17.683534 -0.000000 0.000017 20.885498 6.462910 3.767146 17.089314 0.000003 0.000032 17.547434 -0.000001 0.000027 -2.193613 -1.349948 -21.652760 4.892381 1.365011 -24.424021 3.659830 0.785812 -20.077187 0.517817 -6.735997 -6.645599 0.016960 17.423676 0.025536 -4.571481 -7.981072 2.023375 0.000000 0.000000 0.000000 1.992483 -0.382347 26.142479 -0.012159 12.818389 -0.017751 6.131242 -5.006217 -2.380167 0.000001 0.000001 0.000001 
-0.001464 0.791880 0.015647 -1.478857 -0.102084 -15.552226 -2.464715 0.905073 -3.837291 3.590783 -3.848703 0.088813 -0.118775 -3.580732 0.065955 -6.401871 -2.664850 4.292920 -10.615070 9.767305 11.603914 0.000001 -0.000001 0.000001 0.000001 -0.000001 0.000001 -3.951945 -0.024511 -0.522304 -73.330277 -22.040286 2.343281 9.478081 24.506796 -124.756971 -54.799871 -24.199012 -27.537093 0.709425 3.569247 10.333023 -10.565895 1.388995 -1.161631 -12.182277 -0.440698 -0.387406 -5.455179 4.331481 -0.044786 -14.594992 -0.000373 0.000014 -12.186528 -0.000001 0.000077 -1.246712 3.572411 7.449301 -15.833272 0.000008 0.000015 -12.194852 -0.000015 -0.000029 -1.550144 3.802263 4.806650 -19.683784 -0.000013 0.000047 -12.194867 0.000010 -0.000012 9.025064 -18.294517 16.602839 -4.736432 1.412050 27.168319 -3.522028 0.819294 23.208030 4.850635 -0.115661 0.741062 63.743922 23.583178 2.197095 1.096945 -1.835161 121.216583 32.714741 -19.065512 14.372779 13.631487 2.348365 -5.499019 16.253832 1.281395 1.187344 17.867165 -0.616006 0.598202 21.324523 8.713520 8.330915 17.631954 -0.000349 -0.000020 17.883305 0.000006 -0.000104 17.395915 3.555444 -2.604014 17.927080 0.000001 0.000045 17.683544 -0.000002 0.000009 20.885491 6.462903 3.767133 17.089302 -0.000005 0.000033 17.547437 -0.000006 0.000037 -2.193604 -1.349956 -21.652755 4.892373 1.365011 -24.424029 3.659822 0.785805 -20.077193 0.445040 -6.444958 -6.769608 0.023076 16.850126 0.025298 -4.610005 -7.311533 2.161350 0.000000 0.000000 -0.000002 1.860491 -0.163431 26.112580 -0.018528 12.210144 -0.016092 6.074383 -4.364819 -2.488314 -0.000000 0.000001 0.000001 
-0.001502 0.792022 0.015695 -1.470911 -0.126757 -15.470197 -2.460359 0.898860 -3.807449 3.575782 -3.852490 0.087424 -0.131086 -3.576895 0.064552 -6.412866 -2.670686 4.300390 -10.665060 9.764929 11.614392 -0.000002 0.000001 -0.000000 -0.000002 0.000001 -0.000000 -3.979349 -0.011471 -0.512339 -73.231717 -21.973151 2.299671 9.479203 24.506731 -124.759211 -54.799902 -24.199008 -27.537082 0.709434 3.569237 10.333018 -10.565907 1.389023 -1.161652 -12.182262 -0.440699 -0.387397 -5.455193 4.331484 -0.044792 -14.594982 -0.000366 -0.000003 -12.186527 -0.000025 0.000098 -1.246691 3.572417 7.449301 -15.833270 0.000013 -0.000002 -12.194867 -0.000002 -0.000023 -1.550129 3.802273 4.806636 -19.683808 0.000018 0.000036 -12.194857 0.000005 -0.000011 9.025060 -18.294508 16.602836 -4.736442 1.412024 27.168314 -3.522020 0.819298 23.208042 4.809368 -0.135185 0.754457 63.812688 23.568650 2.149405 1.096622 -1.835254 121.207390 32.714755 -19.065501 14.372777 13.631485 2.348357 -5.499013 16.253828 1.281404 1.187344 17.867170 -0.616011 0.598207 21.324530 8.713529 8.330906 17.631976 -0.000356 -0.000022 17.883302 0.000005 -0.000095 17.395918 3.555438 -2.603991 17.927076 0.000016 0.000023 17.683527 -0.000003 0.000013 20.885511 6.462905 3.767143 17.089311 0.000001 0.000036 17.547429 0.000009 0.000040 -2.193590 -1.349952 -21.652752 4.892370 1.365011 -24.424012 3.659812 0.785823 -20.077181 0.426895 -6.214177 -6.824003 0.034979 16.577084 0.025939 -4.647570 -7.222344 2.167021 -0.000000 0.000000 -0.000003 1.813063 -0.106810 26.073542 -0.002105 12.083398 -0.016217 6.038748 -4.346486 -2.492908 0.000000 -0.000000 -0.000000 
